<?xml version="1.0" standalone="no"?>
<!DOCTYPE svg PUBLIC "-//W3C//DTD SVG 20010904//EN"
 "http://www.w3.org/TR/2001/REC-SVG-20010904/DTD/svg10.dtd">
<svg version="1.0" xmlns="http://www.w3.org/2000/svg"
 width="1161.000000pt" height="1160.000000pt" viewBox="0 0 1161.000000 1160.000000"
 preserveAspectRatio="xMidYMid meet">

<g transform="translate(0.000000,1160.000000) scale(0.100000,-0.100000)"
fill="#000000" stroke="none">
<path d="M5310 11299 c-1058 -79 -2083 -465 -2935 -1105 -292 -219 -638 -542
-873 -814 -1093 -1268 -1561 -2935 -1286 -4580 256 -1536 1145 -2894 2454
-3753 758 -496 1595 -791 2530 -889 198 -21 924 -17 1115 5 1170 138 2141 553
3030 1293 167 139 509 481 655 654 680 808 1114 1764 1265 2788 44 299 58 494
58 827 0 324 -14 527 -53 798 -213 1458 -979 2757 -2156 3654 -858 653 -1882
1039 -2983 1123 -158 12 -655 11 -821 -1z m831 -109 c1834 -141 3453 -1168
4368 -2770 717 -1256 900 -2789 501 -4195 -320 -1123 -984 -2106 -1916 -2833
-153 -120 -481 -338 -654 -437 -1566 -888 -3472 -950 -5095 -166 -1025 495
-1875 1304 -2427 2308 -302 550 -517 1187 -608 1804 -54 368 -74 826 -51 1169
73 1073 436 2065 1066 2915 717 967 1729 1669 2890 2006 347 101 793 179 1150
202 127 8 655 6 776 -3z"/>
<path d="M5587 11060 c-102 -10 -103 -11 -192 -310 -99 -334 -96 -323 -105
-313 -4 4 -51 107 -105 228 -166 377 -144 349 -280 347 -96 -2 -140 -14 -150
-40 -6 -15 41 -762 51 -809 4 -21 10 -23 67 -23 108 0 103 -28 74 375 -14 193
-24 351 -23 352 1 2 65 -145 141 -325 76 -180 144 -337 152 -349 12 -20 22
-23 77 -23 47 0 69 5 84 18 14 12 46 113 112 352 91 329 108 385 110 365 0 -5
11 -162 25 -347 13 -186 27 -342 30 -348 7 -11 113 -14 139 -4 21 8 21 40 -9
444 -14 184 -25 345 -25 358 0 12 -9 31 -20 42 -21 21 -36 22 -153 10z"/>
<path d="M6121 11031 c-15 -10 -115 -779 -106 -818 6 -27 13 -29 165 -48 235
-28 327 -16 405 56 114 105 93 306 -37 360 l-30 12 28 15 c65 33 97 77 109
150 16 97 -43 192 -141 226 -44 15 -306 56 -358 56 -11 0 -27 -4 -35 -9z m305
-167 c55 -28 70 -93 34 -151 -29 -48 -53 -57 -138 -49 -42 3 -77 8 -80 10 -4
4 16 190 23 212 4 15 120 0 161 -22z m-19 -354 c94 -41 97 -172 5 -216 -32
-15 -48 -16 -124 -7 -49 6 -90 12 -93 14 -2 3 3 52 10 109 8 58 15 111 15 119
0 19 130 6 187 -19z"/>
<path d="M7007 10880 c-8 -12 -63 -192 -123 -401 -107 -376 -108 -379 -89
-398 22 -21 442 -144 457 -134 15 8 38 69 38 97 0 27 0 27 -215 87 -44 12 -84
26 -88 30 -8 6 45 214 58 227 3 3 63 -11 133 -30 83 -24 131 -33 138 -27 7 5
17 31 24 56 9 39 9 49 -3 58 -8 5 -68 25 -133 44 -66 19 -120 35 -121 36 -2 0
10 46 26 101 24 84 31 99 47 96 11 -2 80 -21 154 -42 89 -26 138 -36 146 -29
14 11 38 93 32 110 -3 10 -423 139 -455 139 -6 0 -18 -9 -26 -20z"/>
<path d="M4060 10804 c-137 -37 -238 -112 -287 -212 -39 -80 -44 -215 -13
-328 47 -174 140 -302 244 -337 144 -49 365 9 477 124 68 70 93 138 93 259 1
217 -123 444 -270 494 -59 20 -170 20 -244 0z m193 -170 c88 -62 164 -281 139
-401 -14 -70 -48 -115 -108 -144 -93 -44 -186 -35 -246 24 -73 73 -137 278
-118 378 29 150 211 228 333 143z"/>
<path d="M7741 10628 c-5 -13 -81 -184 -169 -381 -89 -197 -158 -365 -155
-372 7 -19 87 -57 124 -59 l30 -1 170 380 c93 209 167 385 165 392 -7 18 -101
63 -131 63 -17 0 -28 -7 -34 -22z"/>
<path d="M8126 10413 c-57 -89 -376 -675 -376 -691 0 -20 74 -69 116 -78 29
-6 31 -3 113 145 l83 150 36 -23 c62 -39 77 -68 75 -144 -2 -37 -9 -114 -16
-171 -16 -120 -16 -121 72 -166 84 -42 82 -44 101 115 15 124 13 240 -5 274
-8 15 -15 29 -15 30 0 1 17 0 38 -2 67 -7 123 15 174 68 55 57 84 136 73 200
-9 53 -56 123 -107 160 -68 50 -292 170 -316 170 -14 0 -30 -13 -46 -37z m248
-222 c53 -46 51 -123 -5 -177 -43 -41 -104 -40 -182 5 -31 18 -57 35 -57 37 0
3 26 52 58 109 l57 104 55 -31 c30 -17 63 -38 74 -47z"/>
<path d="M3164 10381 c-55 -20 -267 -134 -296 -159 -10 -8 -18 -23 -18 -33 0
-10 87 -175 193 -366 174 -313 196 -348 221 -351 35 -4 270 126 338 187 93 84
123 166 94 265 -31 106 -123 175 -219 164 l-44 -5 20 47 c35 83 1 179 -86 244
-39 29 -136 32 -203 7z m79 -140 c64 -25 91 -129 46 -177 -21 -23 -118 -84
-132 -84 -6 0 -107 183 -107 194 0 8 140 76 157 76 6 0 23 -4 36 -9z m227
-306 c63 -33 81 -131 33 -182 -26 -27 -161 -109 -167 -101 -9 11 -116 207
-116 212 0 13 164 86 192 86 16 0 42 -7 58 -15z"/>
<path d="M5400 9969 c-555 -47 -1041 -177 -1525 -408 -849 -406 -1572 -1129
-1975 -1976 -655 -1374 -537 -2960 312 -4212 674 -992 1768 -1668 2943 -1817
309 -39 712 -46 990 -16 1353 144 2540 909 3227 2080 624 1064 747 2375 332
3543 -220 620 -562 1151 -1045 1622 -795 775 -1857 1202 -2973 1194 -105 -1
-234 -5 -286 -10z m270 -209 c111 -73 180 -175 198 -290 l9 -55 7 47 c5 26 6
64 4 83 -2 19 0 35 4 35 5 0 36 -14 70 -31 68 -34 149 -105 184 -162 35 -54
56 -142 49 -202 l-6 -50 20 25 c11 14 26 37 32 53 6 15 15 27 20 27 14 0 69
-80 103 -150 28 -59 31 -74 31 -165 0 -88 -3 -107 -27 -158 -90 -192 -308
-287 -659 -288 -259 -1 -406 45 -538 167 -173 160 -208 387 -94 608 26 51 63
97 127 161 98 98 91 98 110 12 7 -28 8 -27 122 79 125 117 159 164 169 237 4
26 10 47 14 47 3 0 26 -13 51 -30z m500 -1315 c0 -11 11 -15 40 -15 l40 0 0
-190 0 -190 -70 0 -70 0 0 -65 0 -65 -50 0 -50 0 0 -64 0 -63 -66 -6 c-43 -3
-78 0 -98 8 -53 22 -120 27 -162 13 -24 -8 -56 -11 -84 -7 -42 6 -130 -3 -151
-16 -5 -4 -9 20 -9 55 l0 60 259 -2 c143 -2 262 0 266 4 4 4 5 14 2 23 -5 13
-34 15 -190 15 -176 0 -183 1 -184 20 -1 11 2 18 8 15 5 -4 5 3 0 18 -5 13 -6
29 -2 35 4 8 66 12 186 14 99 1 205 5 235 8 l55 7 -47 3 c-27 1 -52 4 -58 5
-5 1 -106 3 -222 4 -142 1 -208 5 -198 11 13 9 13 10 0 10 -9 0 -11 3 -5 8 10
6 12 23 5 37 -7 13 -5 31 3 43 6 8 5 12 -4 12 -11 0 -11 2 1 10 13 9 13 10 0
10 -11 0 -12 2 -3 8 8 5 9 13 3 22 -5 8 -5 21 1 31 6 12 5 20 -1 24 -8 5 -7
11 1 21 9 11 8 14 -2 14 -11 0 -11 2 1 10 13 9 13 10 0 10 -12 0 -12 2 -1 9 9
6 10 11 2 15 -19 12 -2 26 32 26 24 0 28 3 17 10 -13 9 -13 10 0 11 12 0 12 2
1 6 -11 5 -11 7 0 14 8 5 -64 9 -173 9 -161 0 -188 -2 -188 -15 0 -10 -11 -15
-35 -15 l-35 0 0 -180 0 -180 70 0 70 0 0 -65 0 -65 44 0 c37 0 45 -4 50 -22
6 -25 8 -154 2 -147 -4 4 -15 102 -16 137 0 20 -5 22 -50 22 l-50 0 0 65 0 65
-65 0 -65 0 -1 150 c-1 83 -2 168 -3 190 -1 40 -1 40 37 40 26 0 37 4 37 15 0
13 59 15 470 15 411 0 470 -2 470 -15z m-380 -666 c28 -6 50 -14 48 -19 -5
-14 -85 -97 -109 -114 -26 -18 -153 -23 -164 -6 -17 27 71 124 123 136 23 5
39 9 49 13 1 1 25 -4 53 -10z m-183 -23 c-3 -8 -26 -41 -51 -74 -49 -64 -69
-75 -158 -87 -54 -7 -56 -4 -32 53 19 46 60 90 99 108 42 19 149 19 142 0z
m432 -16 c24 -11 42 -22 40 -24 -15 -14 -100 -76 -117 -85 -11 -6 -37 -11 -57
-11 -41 0 -123 19 -130 30 -7 11 66 81 100 96 43 19 113 17 164 -6z m-2452
-21 c69 -43 93 -146 50 -210 -36 -53 -82 -79 -142 -79 -121 0 -200 122 -147
226 25 48 40 62 89 80 47 17 106 10 150 -17z m4431 -6 c102 -75 96 -209 -13
-270 -130 -74 -283 54 -231 191 18 47 35 66 81 91 40 21 126 15 163 -12z
m-2638 13 c0 -2 -15 -37 -34 -78 -37 -80 -59 -101 -134 -124 -62 -18 -62 -18
-62 14 0 71 69 161 138 182 28 9 92 13 92 6z m869 -59 c25 -12 46 -27 48 -33
5 -14 -122 -74 -158 -74 -33 0 -149 47 -149 61 0 4 14 18 31 30 75 53 145 58
228 16z m-1092 -30 c-2 -7 -10 -39 -17 -72 -6 -33 -18 -70 -26 -82 -16 -26
-86 -68 -128 -79 l-29 -7 7 57 c7 67 23 100 63 138 46 44 143 77 130 45z m771
-53 c44 6 82 -8 82 -30 0 -6 7 -18 17 -25 15 -13 15 -12 4 11 -11 22 -10 22
14 -5 16 -18 24 -23 21 -12 -7 24 1 21 15 -4 8 -15 8 -19 0 -15 -6 4 -11 2
-11 -5 0 -7 -7 -4 -15 7 -10 13 -14 14 -15 5 0 -11 -3 -11 -17 0 -15 13 -15
12 -5 -8 16 -28 34 -40 26 -16 -5 16 -4 16 10 -1 9 -11 16 -15 16 -9 0 15 30
10 41 -8 5 -8 9 -11 9 -7 0 3 3 15 6 25 4 13 3 14 -3 5 -7 -9 -13 -5 -21 15
-11 26 -11 27 3 9 11 -15 15 -16 16 -5 0 11 2 11 6 0 4 -9 8 -10 12 -2 4 6 7
-6 8 -27 0 -29 -1 -33 -8 -17 -8 18 -9 19 -6 1 3 -24 34 -29 47 -8 7 13 9 14
10 3 0 -11 4 -9 15 5 14 18 14 17 5 -10 -6 -16 -8 -31 -5 -34 3 -3 5 -1 5 4 0
6 7 19 15 30 13 17 14 16 5 -15 -12 -44 -6 -52 8 -12 11 30 24 43 20 19 -2 -7
4 -14 12 -14 8 -1 20 -2 27 -3 11 -1 9 -43 -3 -63 -3 -4 -1 -8 4 -8 8 0 20 24
26 52 0 3 5 10 10 15 8 7 4 -23 -10 -69 -3 -10 0 -18 6 -18 6 0 9 4 5 9 -3 5
-1 12 5 16 6 4 7 11 4 17 -4 7 -2 8 4 4 7 -4 12 -2 12 5 0 7 2 10 4 8 2 -2 1
-25 -3 -51 -5 -27 -6 -48 -4 -48 2 0 10 18 19 40 9 23 19 39 22 36 2 -3 5 -33
4 -68 0 -50 2 -58 11 -43 9 17 13 32 16 70 1 12 24 -11 27 -27 10 -47 15 -61
33 -85 12 -14 21 -22 21 -18 0 4 6 3 13 -2 6 -6 22 -9 34 -8 13 1 30 -7 40
-17 18 -20 20 -19 -61 -22 -17 -1 -31 -7 -33 -16 -4 -13 -3 -13 6 0 10 13 11
13 11 0 0 -13 1 -13 10 0 5 8 10 10 10 3 0 -7 17 -10 50 -9 57 3 64 -13 12
-26 -17 -5 -34 -13 -38 -20 -4 -7 -3 -8 5 -4 6 4 33 9 59 11 l47 4 -37 -20
c-21 -11 -38 -22 -38 -25 0 -3 4 -2 10 1 5 3 26 8 47 10 l38 4 -35 -19 c-38
-21 -29 -26 17 -10 28 10 28 10 7 -7 -12 -10 -30 -24 -40 -31 -11 -7 -13 -10
-6 -7 20 10 72 24 72 20 0 -3 -12 -11 -27 -19 -32 -17 -13 -22 20 -5 19 9 19
7 -3 -11 l-25 -21 30 6 30 6 -24 -14 c-32 -19 -37 -46 -7 -40 17 4 18 3 6 -7
-12 -9 -11 -10 9 -5 15 5 21 3 17 -3 -3 -5 1 -13 10 -16 8 -3 12 -11 8 -17 -4
-8 1 -9 17 -5 24 7 24 7 -1 -8 -27 -17 -55 -22 -30 -6 13 9 13 10 0 10 -13 0
-13 1 0 10 8 5 11 10 5 10 -5 0 -17 -5 -25 -10 -13 -9 -13 -10 0 -10 12 0 12
-2 2 -8 -9 -6 -5 -12 13 -20 15 -7 24 -8 20 -2 -3 5 -2 10 4 10 5 0 12 -4 15
-9 7 -11 -22 -23 -37 -15 -7 3 -3 -2 7 -10 21 -17 41 -21 32 -7 -3 5 1 12 9
15 12 4 13 2 5 -13 -8 -16 -5 -23 18 -40 15 -11 21 -21 14 -21 -7 0 -10 -4 -7
-10 3 -5 2 -10 -4 -10 -5 0 -13 5 -16 10 -3 6 -1 10 6 10 16 0 -19 34 -46 43
-13 5 -10 0 10 -17 17 -14 25 -25 20 -26 -6 0 -17 6 -24 13 -11 10 -12 9 -5
-3 9 -15 12 -29 18 -65 2 -11 4 -23 5 -27 0 -5 6 -8 13 -8 9 0 9 3 0 12 -20
20 -13 32 8 13 30 -27 24 -6 -7 27 -15 15 -21 28 -15 28 7 0 12 -4 12 -10 0
-5 10 -14 21 -21 15 -8 19 -8 15 0 -4 6 0 11 8 11 13 0 16 -12 16 -60 0 -32 7
-80 16 -105 13 -39 13 -57 3 -119 -9 -50 -9 -85 -3 -107 14 -48 -32 -158 -90
-221 -35 -37 -41 -48 -29 -53 9 -3 18 -3 21 0 3 3 0 5 -7 5 -7 0 -9 5 -6 10 3
6 11 10 16 10 6 0 7 -4 4 -10 -7 -12 -3 -12 20 -4 12 5 13 9 5 14 -8 5 -8 10
-2 14 5 3 12 -1 16 -9 3 -9 -5 -20 -22 -29 -15 -9 -21 -15 -13 -16 8 0 12 -2
9 -5 -3 -3 -16 -1 -30 4 -18 7 -25 6 -25 -4 0 -7 5 -11 11 -9 6 2 11 -7 11
-20 0 -21 -3 -23 -24 -15 -13 5 -26 7 -29 4 -3 -3 -1 -5 4 -5 6 0 19 -7 30
-15 17 -14 15 -14 -20 0 -22 8 -41 13 -44 10 -3 -3 0 -5 6 -5 6 0 9 -6 6 -13
-3 -8 9 -20 28 -30 32 -17 27 -17 -32 0 -8 2 1 -5 20 -16 40 -23 38 -25 -8
-12 -43 13 -41 5 6 -15 24 -11 32 -18 23 -22 -8 -3 -17 0 -19 7 -2 6 -8 9 -13
6 -5 -3 -18 -1 -30 6 -16 8 -20 8 -14 -1 4 -7 21 -19 39 -26 l31 -15 -30 7
c-16 3 -34 7 -40 8 -5 1 -17 6 -25 11 -13 8 -13 7 -1 -8 7 -9 17 -14 22 -11 5
3 9 0 9 -6 0 -6 4 -9 9 -5 10 6 26 -13 18 -21 -2 -2 -17 0 -33 6 l-29 10 24
-18 c35 -28 13 -35 -58 -18 -13 3 -20 2 -17 -2 4 -4 13 -7 19 -7 7 -1 11 -6
10 -12 -1 -6 3 -10 10 -9 7 0 14 -3 17 -9 2 -6 -17 -10 -48 -11 -35 -1 -49 2
-45 10 4 6 -1 5 -10 -3 -9 -7 -17 -19 -17 -25 0 -6 5 -4 10 4 8 12 10 12 10 1
0 -11 3 -11 15 -1 14 12 20 7 16 -14 -1 -5 5 -4 13 4 11 8 16 9 16 1 0 -6 3
-10 8 -9 4 2 8 0 10 -4 6 -20 0 -26 -23 -23 -14 1 -25 -2 -25 -6 0 -5 -6 -8
-12 -7 -7 2 -12 -3 -10 -10 1 -6 -3 -11 -10 -10 -6 2 -17 -7 -23 -19 -7 -13
-15 -20 -19 -16 -4 4 -4 0 -1 -9 4 -9 2 -19 -4 -23 -18 -11 -12 -35 9 -35 11
0 20 4 20 10 0 5 25 28 56 51 65 50 74 45 74 -38 0 -31 4 -53 11 -53 7 0 8 28
4 89 -8 100 0 123 68 189 l34 33 17 -41 c18 -46 21 -116 5 -157 -6 -15 -31
-47 -56 -70 -30 -28 -41 -44 -32 -47 8 -2 70 -14 139 -27 l125 -24 18 -65 c27
-94 33 -290 13 -410 -8 -52 -14 -96 -12 -97 2 -2 13 29 24 69 26 87 42 213 35
270 l-4 41 43 -7 c144 -23 448 -114 643 -193 139 -56 466 -214 463 -224 -2 -3
-61 -37 -133 -74 -71 -37 -136 -73 -143 -80 -11 -10 -10 -24 7 -81 11 -38 25
-91 31 -119 12 -52 28 -185 23 -185 -1 0 -32 18 -68 40 -205 126 -575 276
-863 351 -123 31 -309 59 -402 59 -39 0 -64 5 -74 15 -14 15 -33 104 -28 132
2 6 -1 14 -5 16 -9 6 -236 40 -338 52 l-59 7 39 -44 c21 -23 79 -88 129 -142
50 -55 96 -104 101 -110 6 -6 59 -65 119 -131 61 -66 121 -132 135 -147 l24
-28 -34 -30 -34 -30 -55 58 c-30 31 -97 102 -150 157 -52 55 -137 145 -189
200 -52 55 -128 135 -169 177 l-74 77 -116 7 -117 6 86 -88 c47 -49 100 -105
118 -124 l32 -35 -6 -120 c-2 -66 -7 -300 -11 -520 -3 -220 -7 -401 -8 -403
-2 -1 -34 5 -71 13 -78 19 -226 21 -286 5 -23 -6 -42 -10 -44 -8 -2 3 -25 946
-25 1033 0 44 3 48 124 174 l71 73 -111 -6 -112 -6 -84 -88 c-82 -85 -185
-192 -360 -377 -46 -49 -111 -118 -144 -152 l-59 -63 -38 33 -38 33 73 80 c40
44 138 151 218 239 80 87 150 163 155 170 6 6 33 35 60 64 l50 53 -60 -7 c-85
-9 -336 -45 -361 -51 -17 -4 -23 -16 -27 -55 -3 -27 -12 -62 -19 -77 -13 -26
-16 -27 -126 -34 -151 -10 -269 -31 -435 -78 -258 -74 -566 -201 -757 -312
-52 -31 -96 -55 -98 -53 -1 1 18 81 44 177 26 97 45 182 42 190 -3 7 -74 48
-157 91 -178 90 -185 68 59 185 291 140 533 227 797 287 61 14 114 25 116 25
2 0 7 -39 10 -87 7 -92 34 -204 69 -285 25 -60 34 -57 13 3 -27 76 -47 237
-40 319 6 68 43 208 62 236 5 6 64 21 133 33 174 31 163 27 143 57 -8 14 -14
27 -11 29 3 3 39 8 80 11 68 6 80 4 112 -16 44 -27 106 -22 101 8 -1 9 3 23 9
31 9 12 8 13 -3 6 -11 -6 -13 -4 -9 7 4 8 0 15 -7 15 -10 0 -11 -5 -6 -16 5
-9 5 -27 0 -40 -9 -23 -10 -23 -29 -6 -11 10 -20 26 -20 35 0 21 -24 43 -35
32 -5 -4 -5 -2 -2 4 4 7 -1 18 -10 25 -14 12 -16 12 -8 0 5 -8 -6 -5 -23 7
-30 22 -58 53 -34 38 7 -4 12 -3 12 3 0 5 10 8 22 6 16 -4 19 -2 10 7 -7 7
-26 12 -44 12 -52 1 -43 28 14 40 3 0 10 4 14 8 3 4 -4 5 -17 2 -13 -3 -42 -8
-64 -10 -38 -5 -39 -4 -20 10 11 8 26 16 33 16 6 0 12 4 12 10 0 6 -9 6 -26 0
-38 -15 -51 -12 -33 5 9 9 25 17 37 18 12 0 24 7 27 14 3 10 0 11 -13 5 -31
-17 -72 -23 -72 -12 0 6 4 9 9 6 4 -3 17 1 27 9 17 13 16 14 -16 9 l-35 -6 25
22 c24 21 24 21 2 10 -34 -17 -39 -4 -5 14 15 8 22 15 15 16 -7 0 -22 -4 -32
-10 -15 -8 -20 -6 -25 10 -3 11 -12 20 -18 20 -7 0 -6 4 3 10 21 13 39 12 20
-1 -12 -9 -12 -10 3 -5 10 3 24 6 30 7 7 0 1 5 -12 10 -13 5 -33 7 -45 4 -12
-3 -15 -2 -8 1 10 5 9 9 -5 20 -14 11 -14 13 -2 9 10 -4 16 0 16 10 0 11 -7
14 -21 10 -17 -5 -16 -3 4 9 14 9 22 15 18 16 -3 0 -15 3 -25 6 -15 5 -16 4
-3 -6 12 -9 12 -11 1 -8 -8 2 -15 12 -17 21 -3 20 1 21 26 7 25 -13 21 13 -6
38 -66 64 -74 80 -74 146 0 35 -7 83 -15 106 -13 36 -13 54 -4 102 7 32 9 81
6 108 -5 38 -1 61 14 95 11 25 22 45 25 45 3 0 2 -4 -1 -10 -9 -14 8 -13 23 2
17 17 15 28 -5 21 -11 -4 -14 -3 -9 6 4 6 16 9 25 6 11 -3 24 2 32 12 11 15
11 16 -1 6 -8 -7 -19 -13 -24 -13 -6 1 3 12 19 27 l30 26 -40 -22 c-41 -22
-30 -9 26 32 24 17 24 17 -8 2 -43 -20 -42 -12 2 15 19 12 33 26 29 31 -3 5 1
9 8 9 9 0 9 3 -2 10 -8 5 -19 10 -25 10 -5 0 -4 -4 3 -9 20 -12 -15 -24 -36
-12 -15 8 -13 11 12 21 16 6 36 8 43 6 8 -3 11 -2 8 3 -3 5 3 12 13 15 30 10
24 43 -9 55 -16 5 -29 12 -29 15 0 3 17 -1 38 -8 20 -8 36 -19 34 -26 -1 -6 2
-9 8 -5 16 10 2 25 -37 42 -19 8 -33 16 -31 19 3 2 22 -3 42 -11 45 -19 38 -1
-7 20 -31 13 -10 15 26 2 61 -23 64 -16 5 13 l-43 21 38 -6 c26 -4 37 -3 32 4
-3 6 -12 11 -20 11 -8 0 -16 4 -20 9 -5 10 45 7 68 -4 6 -3 4 0 -6 7 -54 38
-54 39 -2 33 37 -3 46 -2 32 6 -10 6 -14 15 -10 22 5 9 3 9 -8 0 -8 -7 -20 -8
-28 -4 -21 13 -1 18 62 16 32 -1 60 2 63 6 2 4 -5 6 -16 4 -11 -2 -20 1 -20 7
0 6 -3 9 -6 5 -8 -8 -64 13 -64 25 0 5 8 8 18 7 66 -10 127 46 135 126 2 21 9
41 15 43 7 2 9 -5 7 -17 -2 -12 0 -21 5 -21 4 0 7 -13 6 -30 -2 -21 1 -27 9
-20 7 6 16 6 20 2 5 -4 5 -1 0 7 -10 17 -13 91 -4 96 4 3 12 -9 19 -25 7 -17
17 -30 22 -30 5 0 7 4 4 8 -3 5 -7 20 -10 35 -6 32 10 46 19 17 3 -11 11 -20
16 -20 6 0 7 6 2 13 -11 18 -12 37 -2 37 5 0 14 -11 19 -25 11 -29 20 -33 15
-7 -2 9 -4 17 -5 17 -1 0 -3 8 -5 18 -5 25 2 21 19 -10 13 -24 15 -25 16 -8 1
20 1 20 15 1 16 -21 21 -10 6 13 -5 7 -13 11 -19 7 -10 -6 -26 23 -17 32 3 3
5 0 5 -7 0 -7 8 -11 18 -9 9 2 23 -5 30 -17 13 -20 13 -20 7 3 -3 12 -7 32
-10 45 -4 14 1 9 14 -13 21 -36 29 -26 10 13 -10 21 -10 21 5 3 9 -11 16 -25
16 -30 0 -6 5 -3 11 7 6 9 7 27 4 40 -3 12 -3 18 2 12 13 -16 36 -17 30 -1 -4
9 0 13 11 11 9 -1 23 7 30 19 12 19 13 19 7 1 -4 -11 -9 -25 -12 -32 -3 -7 3
-10 13 -9 10 2 20 9 22 16 3 8 0 10 -9 5 -8 -5 -11 -4 -6 1 5 5 12 9 15 9 4 0
14 4 22 10 12 7 13 6 4 -6 -6 -8 -14 -23 -17 -34 -7 -19 -6 -19 7 -2 10 13 15
15 19 5 2 -7 4 5 3 27 l-1 39 55 11 c30 6 65 17 77 23 13 7 58 11 110 10 49 0
97 3 107 9 13 7 37 4 84 -9 43 -12 83 -17 110 -14z m492 -5 c37 -22 90 -69 90
-79 0 -3 -39 -14 -86 -24 -81 -18 -87 -18 -121 -2 -44 21 -103 65 -103 78 0 5
19 18 43 28 57 26 132 26 177 -1z m-2459 -151 c84 -90 181 -193 216 -229 l64
-66 -170 -149 c-93 -82 -174 -149 -178 -149 -11 0 -428 444 -428 455 0 9 325
298 336 299 4 1 75 -72 160 -161z m3829 12 c93 -83 170 -153 170 -156 0 -8
-422 -454 -430 -454 -13 0 -341 292 -338 301 3 8 420 459 425 459 2 0 79 -68
173 -150z m-4960 96 c-15 -40 -12 -145 5 -203 78 -264 415 -381 636 -221 l43
31 118 -124 118 -124 -40 -40 c-54 -55 -92 -142 -98 -225 -11 -163 85 -317
246 -393 61 -29 76 -32 164 -32 54 0 98 -3 98 -6 0 -4 -25 -30 -56 -58 -245
-224 -592 -297 -919 -194 -159 50 -268 116 -394 237 -206 200 -300 431 -289
714 9 218 79 387 223 541 53 57 145 134 152 128 2 -2 -1 -16 -7 -31z m5913
-105 c165 -177 250 -447 217 -691 -15 -114 -67 -263 -126 -362 -63 -106 -195
-244 -301 -315 -285 -189 -645 -221 -941 -82 -98 45 -189 108 -252 174 l-45
47 55 -7 c73 -9 186 16 255 55 67 38 135 113 172 188 25 52 28 67 28 162 -1
123 -18 171 -86 245 l-42 45 44 48 c23 26 75 81 115 123 l72 76 30 -24 c86
-66 216 -96 324 -74 131 28 251 121 306 238 23 50 27 71 27 153 0 52 -4 106
-9 119 -8 23 -7 23 36 -7 25 -17 79 -67 121 -111z m-3800 27 c-3 -35 -9 -77
-15 -95 -10 -33 -100 -123 -123 -123 -19 0 -29 89 -15 138 14 53 54 100 105
123 22 10 43 19 47 19 3 0 4 -28 1 -62z m1256 29 c0 -9 -2 -8 -6 1 -2 6 -10 9
-15 6 -7 -4 -8 -2 -4 5 9 13 26 5 25 -12z m-32 -29 c-3 -8 -6 -5 -6 6 -1 11 2
17 5 13 3 -3 4 -12 1 -19z m418 -11 c21 -12 55 -42 73 -67 l35 -45 -74 -8
c-40 -5 -84 -5 -97 -2 -28 7 -122 92 -122 111 0 7 15 18 33 23 56 16 110 12
152 -12z m-1821 -182 c5 -59 3 -91 -5 -107 -17 -32 -82 -108 -92 -108 -15 0
-37 69 -37 117 0 56 30 123 72 158 48 41 54 34 62 -60z m1943 34 c50 -19 133
-116 133 -157 0 -5 -39 -3 -86 4 -96 14 -118 28 -161 102 -22 36 -24 46 -12
53 19 12 92 11 126 -2z m-174 -22 c3 -8 -1 -14 -9 -14 -8 0 -14 6 -14 14 0 7
4 13 9 13 5 0 11 -6 14 -13z m17 -37 c0 -5 -2 -10 -4 -10 -3 0 -8 5 -11 10 -3
6 -1 10 4 10 6 0 11 -4 11 -10z m-1921 -154 c16 -51 22 -85 17 -107 -8 -40
-65 -131 -77 -123 -16 10 -48 81 -54 121 -8 47 16 117 52 155 15 16 29 28 32
28 3 0 17 -34 30 -74z m2161 33 c81 -17 128 -68 149 -158 11 -48 11 -48 -78
-21 -78 23 -105 47 -131 117 -31 82 -31 82 60 62z m-2395 -306 c-3 -53 -24
-123 -36 -123 -6 0 -155 150 -222 225 l-36 40 57 52 57 52 91 -97 92 -97 -3
-52z m2883 177 l51 -45 -56 -60 c-30 -33 -92 -98 -136 -144 l-82 -84 -6 69
c-3 38 -12 82 -19 97 -13 26 -11 30 26 70 117 126 148 156 159 149 7 -4 35
-27 63 -52z m-542 -45 c-13 -10 -15 -15 -6 -15 7 0 11 -2 9 -5 -3 -2 -16 -1
-29 2 l-25 7 30 12 c39 17 44 17 21 -1z m-2202 -80 c44 -83 44 -97 0 -200
l-16 -40 -29 34 c-42 50 -59 93 -59 145 0 61 39 154 59 142 3 -2 24 -39 45
-81z m186 75 c11 -8 7 -9 -15 -5 l-30 6 24 -14 24 -15 -22 -7 c-13 -4 -28 -2
-33 3 -8 8 -4 9 13 6 21 -5 22 -4 6 6 -18 12 -15 30 6 30 7 0 19 -5 27 -10z
m2055 -20 c-3 -5 -12 -10 -18 -10 -7 0 -6 4 3 10 19 12 23 12 15 0z m135 -20
c64 -33 100 -95 100 -175 l0 -46 -72 38 c-81 43 -105 76 -115 162 l-6 52 29
-7 c16 -4 45 -15 64 -24z m-130 -10 c0 -5 -2 -10 -4 -10 -3 0 -8 5 -11 10 -3
6 -1 10 4 10 6 0 11 -4 11 -10z m-2091 -44 c-2 -2 -15 -9 -29 -15 -24 -11 -24
-11 -6 3 16 13 49 24 35 12z m-172 -250 c7 -12 12 -33 13 -48 0 -41 -20 -128
-30 -128 -19 0 -82 65 -102 103 -22 44 -22 115 1 171 l12 30 47 -54 c26 -29
52 -62 59 -74z m2447 74 c63 -40 91 -100 83 -178 -3 -30 -8 -56 -11 -59 -10
-10 -123 87 -134 114 -26 68 -24 153 2 153 7 0 34 -14 60 -30z m7 -220 c66
-54 88 -146 54 -227 l-16 -37 -44 44 c-61 60 -79 100 -70 159 15 104 20 108
76 61z m-2512 -30 c63 -52 66 -57 76 -133 7 -53 0 -87 -19 -87 -19 0 -93 56
-112 85 -9 13 -20 44 -26 67 -10 45 -2 118 12 118 5 0 36 -22 69 -50z m2501
-228 c39 -59 41 -134 6 -202 -12 -25 -27 -44 -31 -44 -5 1 -27 36 -49 78 -39
74 -40 78 -28 122 7 25 19 61 27 81 18 42 27 37 75 -35z m-2484 2 c35 -20 72
-46 83 -59 18 -24 47 -142 37 -153 -3 -3 -24 0 -47 7 -53 16 -124 87 -138 137
-12 42 -15 104 -5 104 3 0 35 -16 70 -36z m180 -111 c-6 -6 -46 20 -46 30 0 4
11 0 25 -9 14 -9 24 -19 21 -21z m2164 27 c0 -5 -5 -10 -11 -10 -5 0 -7 5 -4
10 3 6 8 10 11 10 2 0 4 -4 4 -10z m60 -130 c38 -74 18 -181 -45 -240 -19 -18
-26 -20 -29 -9 -2 8 -11 36 -20 63 -9 27 -16 66 -16 85 0 53 60 159 81 145 5
-3 18 -23 29 -44z m-2335 -6 c35 -11 72 -32 90 -49 29 -30 73 -130 62 -142
-13 -12 -97 10 -139 36 -30 19 -52 43 -65 72 -27 57 -38 113 -20 106 6 -2 39
-13 72 -23z m2181 -30 c18 -14 18 -14 -6 -3 -31 14 -36 19 -24 19 6 0 19 -7
30 -16z m-2087 -175 c111 -18 138 -36 184 -126 20 -37 12 -43 -56 -43 -56 1
-119 30 -150 72 -29 37 -62 108 -50 108 3 0 36 -5 72 -11z m835 -1259 c13
-521 18 -805 13 -800 -2 3 -7 91 -11 195 -10 328 -19 850 -13 845 2 -3 7 -111
11 -240z m-996 -46 c44 -9 117 -35 171 -61 78 -37 109 -59 176 -127 67 -67 90
-98 128 -176 60 -121 82 -230 74 -351 -18 -253 -164 -468 -393 -580 -143 -70
-308 -88 -456 -50 -78 20 -171 62 -184 82 -4 6 34 52 90 108 l97 98 52 -14
c148 -38 314 12 420 127 78 83 101 146 101 275 1 92 -1 105 -31 167 -102 215
-341 305 -553 207 -85 -39 -168 -122 -208 -206 -24 -52 -27 -69 -27 -163 1
-84 5 -116 23 -160 37 -92 21 -92 -148 -1 l-145 78 -3 76 c-7 188 86 398 229
517 170 143 376 197 587 154z m2807 -19 c138 -46 238 -115 327 -227 87 -107
130 -221 149 -386 8 -76 8 -97 -3 -108 -17 -17 -263 -154 -277 -154 -26 0 -29
36 -9 95 29 86 23 217 -15 298 -61 132 -202 232 -345 244 -229 19 -432 -152
-449 -379 -22 -290 229 -497 530 -437 l56 11 88 -92 c48 -51 89 -98 91 -105 4
-17 -134 -70 -223 -86 -40 -7 -106 -9 -159 -6 -257 16 -479 161 -587 383 -173
357 -6 786 365 934 98 40 161 50 281 46 75 -3 120 -10 180 -31z m1929 -99 c14
-25 26 -46 26 -49 0 -2 -25 -21 -55 -41 -35 -23 -55 -43 -55 -55 0 -31 -58
-73 -96 -69 -29 2 -79 -27 -354 -207 -299 -196 -320 -211 -315 -235 12 -57
-60 -120 -138 -120 -40 0 -51 11 -99 100 -94 172 -118 220 -118 236 0 27 40
74 77 89 49 20 89 19 113 -5 19 -19 21 -19 227 71 114 49 272 118 350 151 115
50 144 67 153 88 19 46 87 73 128 51 12 -6 34 -2 72 15 30 13 56 23 57 24 0 0
13 -20 27 -44z m-6937 -17 c40 -17 53 -19 80 -10 42 16 96 -6 117 -47 16 -31
-13 -18 551 -251 169 -69 170 -70 191 -50 22 21 68 25 109 9 35 -13 75 -58 75
-84 1 -12 -34 -89 -77 -173 -62 -121 -84 -155 -106 -164 -63 -27 -159 36 -161
106 -1 41 25 22 -374 272 -95 59 -193 121 -219 137 -33 21 -57 29 -83 28 -42
-3 -100 36 -100 67 0 11 -23 33 -55 55 l-55 36 22 45 c12 25 25 45 29 45 4 0
29 -9 56 -21z m2302 -227 l34 -28 -114 -120 c-63 -65 -186 -196 -275 -289
-605 -640 -759 -800 -768 -800 -6 0 -12 15 -14 33 -3 29 11 48 154 205 87 94
333 364 548 600 214 235 392 427 396 427 3 0 21 -13 39 -28z m2332 9 c8 -10
245 -272 528 -580 283 -309 522 -573 533 -586 13 -17 17 -32 12 -50 -3 -14
-10 -25 -14 -23 -4 2 -265 275 -580 607 l-573 605 29 23 c35 28 47 29 65 4z
m1164 -404 c33 -64 58 -117 55 -119 -17 -14 -440 -248 -448 -248 -10 0 -182
188 -182 199 1 8 503 290 510 286 3 -2 32 -55 65 -118z m-4393 -23 c142 -75
258 -139 258 -142 0 -4 -42 -51 -93 -106 l-92 -98 -130 67 c-71 37 -176 92
-232 122 l-103 54 60 119 c33 66 63 120 67 120 3 0 123 -61 265 -136z m2223 6
c111 -34 192 -85 280 -174 132 -133 189 -275 188 -466 0 -123 -28 -223 -90
-329 -67 -113 -198 -231 -309 -277 l-34 -14 0 146 0 146 52 57 c28 31 65 85
82 121 28 58 31 75 31 160 0 86 -3 101 -32 162 -17 37 -52 88 -78 113 -25 26
-76 61 -113 78 -61 29 -75 32 -167 32 -92 0 -106 -3 -167 -32 -210 -99 -286
-341 -176 -556 10 -21 18 -40 16 -42 -2 -1 -79 38 -172 89 l-169 91 6 90 c11
178 69 307 197 436 70 71 100 94 170 127 47 22 117 48 155 56 93 21 237 15
330 -14z m-50 -291 c29 -11 59 -27 66 -35 9 -12 11 -87 6 -342 -4 -180 -7
-392 -7 -472 l0 -145 -106 -54 -106 -55 -95 48 c-97 48 -124 73 -39 37 45 -20
46 -20 46 -1 0 11 -12 26 -29 34 l-28 15 -7 283 c-3 156 -9 371 -12 479 l-6
197 48 15 c27 9 58 18 69 21 36 9 145 -4 200 -25z m-346 -538 c0 -68 -1 -122
-4 -119 -3 3 -7 139 -9 304 -3 245 -2 266 4 119 4 -99 8 -236 9 -304z m-429
81 l405 -217 3 -148 3 -149 -213 111 c-117 60 -400 207 -628 325 l-415 216 96
0 c101 0 206 21 289 58 25 12 47 21 50 21 3 0 187 -98 410 -217z m1767 187
c69 -25 167 -39 278 -39 l90 0 -499 -260 c-274 -143 -501 -260 -503 -260 -3 0
12 19 32 43 48 55 113 190 128 266 7 33 18 66 24 72 27 27 369 208 383 203 8
-4 39 -15 67 -25z m-1330 -691 c-2 -18 -4 -4 -4 32 0 36 2 50 4 33 2 -18 2
-48 0 -65z"/>
<path d="M5284 7475 c-7 -26 -8 -27 -16 -10 -7 19 -8 19 -5 1 1 -11 10 -20 19
-22 11 -1 15 3 11 14 -4 10 -2 13 5 8 14 -9 15 3 3 23 -8 12 -11 8 -17 -14z"/>
<path d="M5647 7380 c-32 -28 -62 -50 -67 -50 -5 0 -18 -16 -30 -35 -12 -19
-29 -35 -38 -35 -32 0 -179 -66 -255 -113 -136 -85 -232 -187 -297 -317 -74
-147 -101 -278 -105 -505 -2 -88 -4 -165 -4 -171 -1 -6 -14 -31 -31 -55 -48
-71 -38 -127 33 -173 83 -53 268 -96 500 -114 185 -14 607 -7 762 14 265 35
428 82 492 143 35 33 36 55 7 113 -26 51 -27 59 -27 198 1 180 -10 279 -42
394 -64 225 -204 389 -433 508 -48 25 -111 53 -139 63 -38 12 -71 34 -118 78
-80 76 -119 107 -137 107 -7 -1 -39 -23 -71 -50z m71 -112 c1 86 6 142 12 142
6 0 10 -5 10 -10 0 -6 8 -13 18 -17 27 -10 52 -35 52 -53 0 -10 -10 -30 -22
-46 -13 -15 -17 -24 -10 -20 8 5 22 22 32 39 l19 30 31 -32 c22 -21 30 -38 27
-51 -3 -11 -1 -18 3 -15 14 9 142 -35 220 -76 224 -116 376 -328 430 -599 11
-59 19 -245 10 -254 -3 -3 -60 1 -125 9 -371 43 -989 46 -1350 6 -99 -10 -182
-17 -185 -14 -8 8 -1 181 10 246 57 323 272 574 574 666 l70 22 24 -28 24 -28
-21 32 c-26 39 -26 44 0 77 26 32 43 33 57 2 6 -14 21 -30 34 -37 21 -11 20
-10 -5 20 -37 44 -35 67 8 92 19 12 36 26 37 32 1 7 5 -53 8 -133 l6 -145 2
143z m-318 -994 c0 -42 -1 -44 -30 -44 -29 0 -30 2 -30 44 0 38 3 45 23 48 33
6 37 1 37 -48z m70 6 c0 -49 -1 -50 -30 -50 -29 0 -30 2 -30 43 0 50 4 57 37
57 21 0 23 -4 23 -50z m80 0 c0 -49 -1 -50 -30 -50 -29 0 -30 1 -30 50 0 49 1
50 30 50 29 0 30 -1 30 -50z m330 5 l0 -45 -155 0 -155 0 0 45 0 45 155 0 155
0 0 -45z m68 -2 c-3 -44 -5 -48 -28 -48 -23 0 -25 4 -28 48 -3 47 -3 47 28 47
31 0 31 0 28 -47z m72 -3 c0 -49 -1 -50 -30 -50 -29 0 -30 1 -30 50 0 49 1 50
30 50 29 0 30 -1 30 -50z m70 0 c0 -49 -1 -50 -30 -50 -29 0 -30 1 -30 50 0
49 1 50 30 50 29 0 30 -1 30 -50z m70 -5 c0 -52 -1 -55 -25 -55 -24 0 -25 3
-25 55 0 52 1 55 25 55 24 0 25 -3 25 -55z m-910 -5 c0 -27 -4 -50 -9 -50 -5
0 -16 -3 -25 -6 -13 -5 -16 3 -16 50 0 53 1 56 25 56 23 0 25 -3 25 -50z m78
3 c-3 -44 -5 -48 -30 -51 -27 -3 -28 -2 -28 47 0 50 1 51 31 51 30 0 30 -1 27
-47z m912 -1 c0 -57 -2 -61 -35 -54 -23 4 -25 9 -25 53 0 48 1 49 30 49 29 0
30 -1 30 -48z m68 -9 l3 -53 -30 0 c-31 0 -31 0 -31 56 0 54 0 55 28 52 25 -3
27 -7 30 -55z m-1198 -8 c0 -54 0 -55 -30 -55 -29 0 -30 1 -30 49 0 49 7 59
43 60 14 1 17 -8 17 -54z m70 5 c0 -49 -1 -50 -30 -50 -29 0 -30 1 -30 50 0
49 1 50 30 50 29 0 30 -1 30 -50z m1200 -6 c0 -54 0 -55 -27 -52 -26 3 -28 7
-31 56 l-3 52 30 0 c31 0 31 0 31 -56z m70 -10 c0 -51 -1 -54 -25 -54 -24 0
-25 3 -25 59 0 57 1 58 25 53 23 -4 25 -9 25 -58z m-1410 7 c0 -35 -4 -51 -16
-55 -38 -14 -44 -7 -44 49 0 54 0 55 30 55 29 0 30 -1 30 -49z m1483 35 c25
-6 27 -10 27 -60 l0 -53 -37 6 -38 6 -3 58 c-2 43 0 56 10 53 7 -3 25 -7 41
-10z m-1553 -45 c0 -42 -3 -49 -22 -55 -52 -13 -58 -9 -58 42 0 58 3 62 47 62
33 0 33 0 33 -49z m1146 -31 c123 -10 333 -34 400 -46 26 -5 34 -14 53 -58 23
-57 26 -79 11 -106 -54 -101 -493 -170 -1000 -157 -266 7 -378 18 -531 52
-156 34 -229 75 -229 126 0 32 77 149 97 149 8 0 73 7 146 15 73 9 182 19 242
24 160 12 661 13 811 1z"/>
<path d="M5627 7140 c23 -24 44 -42 46 -40 2 3 -17 23 -42 44 l-46 40 42 -44z"/>
<path d="M5804 7138 l-29 -33 33 29 c30 28 37 36 29 36 -2 0 -16 -15 -33 -32z"/>
<path d="M5710 7065 c0 -8 4 -15 10 -15 5 0 7 7 4 15 -4 8 -8 15 -10 15 -2 0
-4 -7 -4 -15z"/>
<path d="M6243 7399 c-14 -35 -10 -37 11 -5 9 14 12 27 8 30 -5 3 -13 -8 -19
-25z"/>
<path d="M6271 7398 c-10 -30 -9 -31 4 -14 8 11 15 26 15 33 0 22 -8 14 -19
-19z"/>
<path d="M5007 7241 c-4 -17 -3 -21 5 -13 5 5 8 16 6 23 -3 8 -7 3 -11 -10z"/>
<path d="M4629 6700 c-19 -16 -29 -30 -23 -30 6 0 21 11 34 25 18 19 26 22 32
13 6 -10 8 -10 8 -1 0 24 -19 22 -51 -7z"/>
<path d="M4636 6671 c-14 -15 -14 -20 -3 -30 11 -9 17 -7 28 6 12 16 12 17 -2
6 -23 -18 -32 -3 -12 19 9 10 14 18 11 18 -3 0 -12 -8 -22 -19z"/>
<path d="M6750 6656 c0 -2 8 -10 18 -17 15 -13 16 -12 3 4 -13 16 -21 21 -21
13z"/>
<path d="M4692 6041 c-11 -7 -11 -9 0 -14 9 -3 15 1 15 9 0 8 -1 14 -1 14 -1
0 -7 -4 -14 -9z"/>
<path d="M4685 6000 c-16 -7 -17 -9 -3 -9 9 -1 20 4 23 9 7 11 7 11 -20 0z"/>
<path d="M4700 5940 c-13 -9 -13 -10 0 -10 8 0 22 5 30 10 13 9 13 10 0 10 -8
0 -22 -5 -30 -10z"/>
<path d="M4888 5732 c4 -11 7 -12 10 -4 3 10 7 10 20 0 14 -10 15 -10 5 2 -18
20 -43 22 -35 2z"/>
<path d="M4940 5726 c0 -2 8 -10 18 -17 15 -13 16 -12 3 4 -13 16 -21 21 -21
13z"/>
<path d="M6409 5643 c-13 -16 -12 -17 4 -4 9 7 17 15 17 17 0 8 -8 3 -21 -13z"/>
<path d="M6411 5616 c-8 -10 -9 -16 -1 -21 5 -3 10 -11 10 -16 0 -6 -5 -7 -12
-3 -7 4 -8 3 -4 -4 4 -7 13 -12 21 -12 16 0 8 40 -9 40 -6 0 -2 7 8 15 11 8
15 15 9 15 -6 0 -16 -6 -22 -14z"/>
<path d="M6361 5583 c7 -12 15 -20 18 -17 3 2 -3 12 -13 22 -17 16 -18 16 -5
-5z"/>
<path d="M5047 5577 c-3 -8 1 -14 8 -14 7 0 11 6 8 14 -3 7 -6 13 -8 13 -2 0
-5 -6 -8 -13z"/>
<path d="M5373 5433 c-7 -2 -13 -13 -13 -24 0 -14 7 -19 30 -19 28 0 30 -2 31
-40 1 -22 3 -44 4 -50 1 -5 3 -32 4 -60 1 -47 3 -50 27 -50 l26 0 -4 103 -3
102 28 3 c19 2 27 9 27 23 0 17 -7 19 -72 18 -40 0 -79 -3 -85 -6z"/>
<path d="M5600 5350 c0 -99 10 -132 47 -149 32 -15 48 -14 83 4 36 19 43 40
46 148 l2 87 -29 0 -29 0 0 -93 c0 -110 -16 -140 -54 -101 -12 12 -16 37 -16
105 0 88 0 89 -25 89 -25 0 -25 -1 -25 -90z"/>
<path d="M5858 5314 l-3 -126 69 4 c52 3 71 8 82 23 20 27 17 69 -6 90 l-20
18 20 14 c28 20 25 57 -6 82 -19 15 -41 21 -80 21 l-53 0 -3 -126z m107 56 c0
-20 -6 -26 -27 -28 -25 -3 -28 0 -28 28 0 28 3 31 28 28 21 -2 27 -8 27 -28z
m-7 -82 c18 -18 14 -46 -8 -58 -28 -15 -40 -5 -40 36 0 26 4 34 18 34 10 0 23
-5 30 -12z"/>
<path d="M5245 5420 c-4 -6 -3 -50 0 -98 6 -76 5 -90 -10 -102 -12 -10 -21
-11 -33 -3 -20 12 -29 45 -37 136 -6 64 -8 67 -28 61 -12 -3 -23 -7 -25 -9 -1
-1 2 -44 7 -95 11 -104 32 -140 82 -140 85 0 104 33 94 164 -6 84 -9 96 -25
96 -11 0 -22 -5 -25 -10z"/>
<path d="M6106 5328 c-4 -57 -10 -113 -13 -125 -4 -19 -1 -23 20 -23 26 0 37
20 37 73 0 15 6 27 13 27 21 0 37 -22 37 -51 0 -43 10 -59 37 -59 22 0 23 3
18 38 -10 58 -15 72 -27 72 -6 0 1 11 16 25 62 57 11 125 -94 125 l-37 0 -7
-102z m102 50 c18 -18 14 -46 -7 -58 -33 -17 -41 -11 -41 30 0 32 4 40 18 40
10 0 23 -5 30 -12z"/>
<path d="M4924 5393 c-85 -16 -99 -186 -20 -238 32 -22 91 -14 119 14 25 24
34 105 17 155 -16 50 -65 79 -116 69z m61 -73 c29 -56 11 -140 -30 -140 -37 0
-69 105 -46 149 18 32 57 28 76 -9z"/>
<path d="M6367 5376 c-81 -75 -44 -226 55 -226 94 0 144 155 73 226 -33 33
-93 33 -128 0z m91 -28 c17 -17 15 -109 -4 -136 -17 -24 -43 -29 -62 -10 -17
17 -15 109 4 136 17 24 43 29 62 10z"/>
<path d="M7097 4998 c-11 -44 -14 -75 -8 -81 5 -5 26 -9 46 -10 48 -1 75 29
75 84 0 41 -19 61 -71 73 -24 5 -26 3 -42 -66z m71 30 c15 -15 16 -53 2 -79
-14 -25 -64 -27 -56 -1 3 9 8 31 12 47 11 49 19 56 42 33z"/>
<path d="M4062 5019 c-36 -11 -36 -3 -4 -104 8 -27 16 -51 18 -53 1 -2 20 2
42 9 26 7 39 16 35 25 -3 9 -11 10 -28 4 -13 -5 -26 -6 -29 -3 -13 14 -5 41
14 46 33 8 24 27 -10 21 -25 -6 -30 -3 -30 14 0 11 8 22 20 25 11 3 20 10 20
16 0 13 -3 13 -48 0z"/>
<path d="M7245 4968 c-9 -34 -19 -67 -22 -74 -6 -16 67 -38 81 -24 5 5 -2 12
-18 16 -20 5 -26 12 -24 28 2 17 9 20 31 18 31 -4 37 13 7 21 -12 3 -20 14
-20 26 0 17 4 20 30 15 18 -4 30 -2 30 4 0 10 -8 14 -61 28 -13 3 -20 -10 -34
-58z"/>
<path d="M3920 4969 c-13 -6 -26 -12 -28 -14 -6 -6 38 -134 48 -140 15 -9 70
24 82 50 13 29 4 69 -22 95 -22 22 -42 24 -80 9z m66 -45 c19 -28 10 -79 -15
-79 -10 0 -51 83 -51 103 0 1 11 2 25 2 15 0 31 -10 41 -26z"/>
<path d="M7428 4963 c-22 -5 -24 -23 -3 -23 17 0 19 -9 6 -42 -19 -53 -22 -78
-8 -78 20 0 61 131 44 142 -6 4 -14 7 -17 7 -3 -1 -13 -3 -22 -6z"/>
<path d="M7549 4923 c-20 -5 -40 -48 -33 -68 4 -8 18 -18 32 -22 24 -6 24 -7
7 -20 -11 -7 -28 -10 -38 -7 -14 4 -18 2 -15 -7 9 -26 47 -21 78 10 37 36 42
94 11 111 -11 5 -21 9 -23 9 -2 -1 -10 -3 -19 -6z m36 -23 c9 -15 -4 -50 -20
-50 -21 0 -27 17 -15 40 12 22 25 26 35 10z"/>
<path d="M3782 4891 c-8 -4 -12 -19 -10 -32 2 -18 9 -24 28 -24 28 0 39 27 20
50 -14 17 -20 18 -38 6z m38 -43 c0 -15 -28 -8 -34 8 -10 26 5 39 21 19 7 -11
13 -22 13 -27z"/>
<path d="M7650 4876 c0 -9 8 -16 19 -16 49 0 25 -50 -36 -77 -18 -7 -33 -18
-33 -23 0 -9 62 -40 81 -40 18 0 9 22 -11 27 -27 7 -25 17 4 31 38 17 60 56
46 81 -6 12 -17 21 -25 21 -7 0 -20 3 -29 6 -11 4 -16 1 -16 -10z"/>
<path d="M3672 4862 c-23 -23 -29 -42 -13 -42 5 0 11 6 14 13 2 6 17 -14 33
-45 15 -32 31 -58 35 -58 21 0 17 25 -14 86 l-34 67 -21 -21z"/>
<path d="M7774 4822 c-44 -31 -61 -125 -24 -137 32 -10 57 3 74 39 19 40 21
77 4 94 -13 13 -38 15 -54 4z m36 -37 c0 -30 -26 -85 -40 -85 -20 0 -20 22 -1
65 22 50 41 59 41 20z"/>
<path d="M3708 7356 l-116 -103 135 -146 c118 -128 138 -145 152 -134 46 32
221 191 221 200 0 5 -33 44 -74 86 -40 42 -99 104 -131 139 -32 34 -60 62 -64
62 -3 0 -58 -47 -123 -104z m237 -65 l108 -115 -49 -43 c-27 -24 -69 -61 -94
-82 l-45 -38 -105 112 c-58 61 -105 116 -105 121 0 11 167 164 176 161 3 -1
54 -53 114 -116z"/>
<path d="M7456 7316 c-75 -79 -136 -146 -136 -149 0 -7 228 -207 236 -207 12
0 280 288 273 293 -2 2 -56 49 -120 105 l-117 101 -136 -143z m233 5 l90 -80
-107 -114 c-59 -63 -109 -115 -112 -116 -3 -1 -47 35 -98 80 l-93 80 108 114
c59 63 111 114 115 115 4 0 48 -36 97 -79z"/>
<path d="M8849 9852 c-136 -45 -291 -205 -349 -360 -29 -77 -25 -186 10 -257
58 -119 232 -245 358 -260 180 -21 380 121 485 342 28 60 32 78 32 153 0 74
-4 92 -29 140 -16 30 -57 83 -91 116 -126 123 -281 170 -416 126z m202 -152
c42 -12 123 -79 144 -121 44 -84 0 -212 -113 -328 -81 -82 -138 -114 -207
-114 -91 0 -190 75 -216 163 -24 79 25 189 134 300 93 96 167 125 258 100z"/>
<path d="M1863 9384 c-91 -95 -159 -175 -161 -188 -2 -18 55 -79 287 -304 198
-193 297 -282 312 -282 15 0 72 52 183 166 88 92 162 170 164 174 5 14 -69 90
-87 90 -9 0 -65 -52 -125 -116 l-109 -116 -88 88 -89 88 96 98 c100 101 100
102 60 146 -47 53 -50 52 -157 -54 l-99 -99 -74 74 -75 74 110 114 c60 63 109
119 109 125 0 13 -74 88 -88 88 -6 0 -82 -75 -169 -166z"/>
<path d="M9602 9166 c-56 -26 -98 -64 -125 -115 -34 -62 -36 -138 -5 -271 26
-119 21 -162 -25 -190 -18 -11 -43 -20 -57 -20 -34 0 -82 31 -115 74 -28 37
-65 140 -65 182 0 14 -7 27 -15 30 -15 6 -76 -34 -103 -66 -33 -39 26 -187
109 -275 123 -131 272 -145 398 -39 79 66 94 161 52 336 -34 141 -18 192 61
204 29 5 41 1 72 -26 45 -40 62 -72 80 -147 7 -35 18 -59 27 -61 8 -1 33 11
57 29 36 26 42 36 42 67 0 80 -81 205 -170 262 -42 27 -63 33 -118 37 -45 2
-78 -1 -100 -11z"/>
<path d="M1468 8785 c-98 -36 -166 -104 -283 -283 -66 -100 -86 -138 -81 -155
8 -29 658 -451 695 -452 26 0 45 24 158 203 100 160 121 302 62 421 -53 106
-178 211 -307 258 -73 27 -184 30 -244 8z m218 -195 c76 -37 146 -98 181 -157
35 -60 36 -138 3 -203 -31 -63 -74 -130 -82 -130 -12 0 -488 312 -488 320 0 4
18 35 41 69 93 139 201 171 345 101z"/>
<path d="M10185 7790 c-197 -65 -366 -122 -374 -127 -13 -9 -13 -17 4 -71 10
-34 24 -67 31 -73 10 -8 99 17 341 95 181 58 333 106 338 106 4 0 -128 -102
-294 -227 l-303 -227 6 -40 c4 -23 15 -57 24 -76 17 -35 17 -35 102 -42 47 -4
220 -11 385 -16 l300 -7 -330 -109 c-181 -60 -335 -113 -342 -118 -21 -17 13
-133 42 -145 9 -3 187 50 396 118 308 100 384 128 396 146 14 21 13 31 -11
108 -15 46 -37 97 -50 112 -26 30 -40 31 -491 51 l-170 7 245 191 c291 226
280 209 231 357 -18 53 -39 98 -47 101 -33 13 -81 0 -429 -114z"/>
<path d="M768 7274 c-62 -19 -146 -97 -181 -167 -65 -132 -74 -302 -24 -408
66 -137 236 -230 452 -246 198 -14 319 65 382 250 95 282 -24 491 -324 568
-91 23 -236 24 -305 3z m304 -194 c174 -54 243 -164 193 -311 -37 -108 -128
-151 -270 -129 -217 34 -320 115 -318 251 2 99 50 175 130 205 50 19 177 12
265 -16z"/>
<path d="M10541 6570 c-211 -27 -390 -51 -398 -54 -21 -8 -14 -139 7 -160 13
-11 79 -5 430 40 228 29 417 53 419 53 9 2 -8 142 -19 156 -16 19 13 21 -439
-35z"/>
<path d="M585 6275 c-54 -19 -120 -93 -141 -158 -12 -36 -18 -103 -21 -219
l-5 -166 23 -15 c20 -12 96 -16 431 -22 l407 -7 6 24 c3 13 5 51 3 83 -3 57
-4 60 -33 66 -16 4 -82 7 -146 8 l-116 1 -6 99 c-11 214 -113 322 -301 321
-34 -1 -79 -7 -101 -15z m185 -181 c58 -23 80 -65 80 -153 l0 -71 -92 0 c-51
0 -117 3 -145 6 l-53 7 0 66 c0 49 5 75 20 99 36 58 113 77 190 46z"/>
<path d="M10490 6156 c-157 -6 -291 -15 -299 -20 -12 -8 -13 -46 -7 -230 4
-158 10 -222 19 -228 14 -9 73 -10 105 -2 23 7 23 8 20 150 -2 79 -3 144 -3
145 0 0 159 6 354 14 273 10 356 16 362 27 12 18 11 101 -1 132 l-10 26 -127
-2 c-71 0 -256 -6 -413 -12z"/>
<path d="M10188 5559 c-15 -9 -24 -147 -11 -160 5 -5 196 -22 424 -38 477 -34
439 -41 439 71 0 46 -4 70 -12 73 -7 2 -182 16 -388 30 -206 14 -390 26 -408
28 -18 2 -38 0 -44 -4z"/>
<path d="M1120 5484 c-139 -81 -183 -114 -202 -154 l-15 -31 -26 40 c-15 22
-48 53 -74 68 -97 57 -244 27 -306 -62 -47 -68 -53 -142 -28 -334 11 -90 26
-170 32 -177 6 -8 23 -14 38 -14 31 0 756 88 790 96 23 5 23 8 19 75 -8 104
-3 103 -196 78 -90 -11 -166 -18 -169 -15 -3 3 -6 30 -7 60 -1 51 2 58 34 90
19 19 89 64 155 101 66 36 123 72 127 78 9 13 0 109 -13 145 -5 12 -17 22 -26
22 -10 0 -70 -30 -133 -66z m-356 -238 c41 -17 71 -77 80 -157 l6 -57 -103
-12 c-56 -7 -111 -13 -122 -13 -17 -2 -21 7 -29 66 -13 107 11 162 79 180 36
9 55 7 89 -7z"/>
<path d="M10888 5154 c-3 -5 -13 -58 -23 -117 -17 -100 -20 -108 -39 -104 -93
22 -670 118 -681 113 -7 -2 -19 -22 -24 -43 -11 -38 -15 -123 -6 -123 17 0
690 -122 694 -126 3 -2 -3 -52 -13 -110 -21 -125 -19 -131 62 -141 41 -5 53
-3 58 10 3 8 29 150 59 314 42 238 50 301 41 311 -15 15 -121 28 -128 16z"/>
<path d="M10082 4698 c-14 -27 -42 -107 -42 -119 0 -4 33 -34 73 -65 39 -31
76 -60 80 -64 4 -4 -17 -74 -46 -156 l-55 -149 -108 -5 -108 -5 -22 -55 c-31
-73 -31 -108 -1 -114 12 -3 214 -7 448 -11 341 -4 428 -3 436 7 17 22 63 152
63 178 0 21 -44 61 -252 230 -407 330 -432 350 -443 350 -7 0 -17 -10 -23 -22z
m393 -463 l139 -110 -99 -3 c-55 -1 -141 1 -192 5 l-91 8 41 112 c25 69 45
109 51 105 6 -3 74 -56 151 -117z"/>
<path d="M1051 4649 c-184 -36 -342 -138 -391 -252 -60 -139 1 -372 127 -487
72 -66 139 -90 249 -90 105 0 184 19 289 70 100 48 152 93 190 161 84 154 7
437 -148 542 -85 59 -200 79 -316 56z m203 -181 c123 -37 187 -225 110 -326
-59 -76 -220 -143 -350 -145 -63 -1 -77 2 -120 28 -60 38 -96 103 -102 184 -7
100 39 162 163 216 114 51 221 66 299 43z"/>
<path d="M1537 3840 c-26 -16 -47 -34 -47 -40 0 -6 15 -19 33 -29 81 -49 107
-73 136 -133 34 -67 37 -99 19 -162 -26 -86 -184 -203 -309 -226 -151 -29
-260 70 -263 239 -1 48 -6 76 -14 79 -22 7 -110 -49 -123 -79 -16 -41 4 -137
44 -213 126 -237 382 -277 645 -102 80 53 131 107 170 181 23 43 27 62 27 140
0 78 -4 98 -28 150 -39 83 -97 156 -153 194 -59 39 -78 39 -137 1z"/>
<path d="M9762 3828 c-32 -35 -63 -110 -51 -125 6 -6 56 -37 112 -69 56 -32
119 -68 139 -81 l37 -23 -21 -36 c-27 -46 -73 -74 -121 -74 -32 0 -177 19
-274 35 -31 6 -35 3 -73 -56 -44 -68 -49 -94 -22 -107 9 -5 85 -17 168 -27
147 -16 175 -15 237 10 15 6 17 1 17 -46 1 -70 27 -126 81 -172 51 -44 134
-72 182 -62 95 21 150 75 257 255 60 102 80 142 78 165 -3 28 -23 42 -353 232
-192 111 -355 202 -361 203 -6 0 -20 -10 -32 -22z m459 -424 c54 -31 99 -61
99 -66 0 -20 -71 -126 -95 -142 -13 -9 -43 -16 -66 -16 -35 0 -48 6 -80 39
-42 41 -49 74 -28 128 13 36 58 113 65 113 3 0 51 -25 105 -56z"/>
<path d="M1936 2672 l-47 -49 81 -102 c174 -218 501 -562 625 -657 l36 -27 50
49 50 50 -139 128 c-157 143 -342 340 -492 526 -55 69 -104 126 -108 128 -4 1
-29 -20 -56 -46z"/>
<path d="M9419 2653 c-156 -200 -365 -427 -557 -604 l-122 -113 49 -50 50 -49
33 25 c124 95 450 437 622 652 l87 109 -48 49 c-26 26 -50 48 -54 48 -4 0 -31
-30 -60 -67z"/>
<path d="M3320 1874 c-79 -34 -150 -138 -150 -220 0 -61 16 -99 86 -204 97
-146 103 -173 50 -226 -38 -38 -74 -44 -131 -20 -46 19 -121 90 -152 143 -16
27 -31 43 -41 41 -23 -5 -72 -102 -64 -130 10 -39 131 -152 197 -183 78 -36
185 -46 249 -21 97 37 173 154 163 251 -6 62 -31 113 -105 218 -68 98 -79 151
-39 191 55 55 149 22 222 -80 22 -30 45 -54 52 -54 14 0 57 62 67 96 15 49
-117 169 -218 199 -63 19 -141 19 -186 -1z"/>
<path d="M7750 1739 c-202 -95 -230 -111 -230 -138 2 -34 337 -735 356 -744
15 -6 72 16 232 90 186 86 212 101 212 121 0 28 -37 102 -50 102 -6 0 -73 -29
-149 -65 -77 -36 -142 -65 -145 -65 -11 0 -107 213 -99 221 5 3 55 28 113 55
139 63 137 61 111 118 -31 70 -26 70 -193 -8 l-97 -45 -46 97 c-25 53 -42 98
-38 99 4 2 69 32 143 66 115 54 135 67 138 88 3 24 -33 89 -53 96 -5 1 -98
-38 -205 -88z"/>
<path d="M3947 1616 c-17 -17 -267 -742 -267 -774 0 -16 9 -27 33 -36 35 -15
416 -146 423 -146 12 0 44 69 44 96 l0 32 -150 52 c-82 29 -150 55 -150 59 0
24 74 221 83 221 7 0 65 -19 129 -41 97 -34 120 -39 133 -29 18 15 40 83 32
103 -3 8 -62 34 -132 57 -78 26 -125 47 -122 54 2 6 17 50 33 99 15 48 33 87
39 87 5 0 73 -22 151 -49 77 -27 146 -46 152 -42 21 13 56 121 39 121 -1 0
-99 34 -217 75 -118 41 -220 75 -227 75 -6 0 -18 -6 -26 -14z"/>
<path d="M7075 1483 c-69 -15 -272 -76 -282 -85 -7 -6 -13 -22 -13 -35 0 -19
95 -359 216 -775 3 -10 15 -18 28 -18 34 0 122 28 134 43 9 11 -17 121 -63
268 -5 15 5 21 52 35 224 65 318 212 256 405 -22 67 -90 139 -149 157 -40 12
-137 15 -179 5z m91 -149 c62 -30 94 -145 59 -214 -9 -16 -29 -37 -46 -46 -30
-15 -121 -45 -125 -41 -4 3 -83 281 -81 283 10 6 117 33 135 33 13 1 39 -6 58
-15z"/>
<path d="M4656 1407 c-12 -9 -37 -119 -95 -412 -43 -220 -76 -406 -73 -412 6
-18 75 -35 125 -31 l42 3 22 115 c13 63 28 138 33 166 l11 52 41 -10 c22 -5
49 -13 59 -19 33 -17 58 -84 85 -223 15 -74 30 -139 34 -145 3 -6 39 -18 80
-27 108 -22 108 -21 71 153 -33 157 -51 206 -86 243 l-25 26 43 11 c99 27 156
98 164 207 7 78 -7 123 -52 169 -50 51 -109 75 -262 106 -200 41 -199 41 -217
28z m251 -173 c88 -24 123 -88 90 -167 -18 -41 -37 -57 -83 -67 -52 -12 -164
8 -164 29 0 9 10 65 21 124 l22 108 31 -6 c17 -4 54 -13 83 -21z"/>
<path d="M6421 1339 c-25 -5 -50 -14 -57 -21 -9 -10 1 -105 46 -419 32 -224
61 -412 65 -419 6 -9 25 -11 67 -6 68 7 98 20 98 43 0 10 -25 195 -55 413 -58
408 -61 422 -104 419 -9 -1 -36 -5 -60 -10z"/>
<path d="M5683 1286 c-180 -41 -297 -173 -325 -363 -30 -203 53 -396 204 -474
114 -59 291 -63 453 -12 85 27 85 27 84 182 0 174 -11 280 -28 291 -14 8 -274
3 -318 -6 -21 -4 -23 -10 -23 -59 0 -32 5 -57 13 -62 6 -4 49 -6 95 -4 l82 3
0 -55 c0 -30 3 -75 6 -101 7 -45 6 -46 -29 -61 -56 -23 -153 -19 -213 9 -99
46 -148 140 -149 286 0 73 4 93 28 142 31 64 71 102 137 131 79 35 221 23 318
-27 55 -29 62 -23 62 47 0 75 -10 87 -91 119 -71 26 -220 33 -306 14z"/>
</g>
</svg>
